<svg width="29" height="29" viewBox="0 0 29 29" fill="none" xmlns="http://www.w3.org/2000/svg">
<rect width="29" height="29" rx="5" fill="#19FE84" fill-opacity="0.25"/>
<path fill-rule="evenodd" clip-rule="evenodd" d="M15.75 3.75015C13.922 3.75015 12.411 3.91115 11.248 4.10715L11.114 4.13015C10.104 4.29915 9.264 4.44015 8.607 5.24815C8.187 5.76715 8.05 6.32815 8.019 6.95315L7.527 7.11715C7.064 7.27115 6.657 7.40715 6.336 7.55715C5.988 7.71915 5.669 7.92715 5.425 8.26615C5.181 8.60515 5.084 8.97315 5.04 9.35415C5 9.70715 5 10.1341 5 10.6231V10.7681C5 11.1701 5 11.5251 5.03 11.8221C5.062 12.1431 5.133 12.4561 5.31 12.7581C5.489 13.0611 5.727 13.2751 5.993 13.4591C6.238 13.6291 6.548 13.8021 6.9 13.9971L9.54 15.4641C10.08 16.5251 10.821 17.4711 11.84 18.1541C12.727 18.7501 13.792 19.1241 15.053 19.2231C15.0191 19.3116 15.0011 19.4054 15 19.5001V21.2501H13.57C13.1654 21.2502 12.7733 21.3904 12.4605 21.6469C12.1476 21.9034 11.9333 22.2604 11.854 22.6571L11.635 23.7501H9.75C9.55109 23.7501 9.36032 23.8292 9.21967 23.9698C9.07902 24.1105 9 24.3012 9 24.5001C9 24.6991 9.07902 24.8898 9.21967 25.0305C9.36032 25.1711 9.55109 25.2501 9.75 25.2501H21.75C21.9489 25.2501 22.1397 25.1711 22.2803 25.0305C22.421 24.8898 22.5 24.6991 22.5 24.5001C22.5 24.3012 22.421 24.1105 22.2803 23.9698C22.1397 23.8292 21.9489 23.7501 21.75 23.7501H19.865L19.646 22.6571C19.5667 22.2604 19.3524 21.9034 19.0395 21.6469C18.7267 21.3904 18.3346 21.2502 17.93 21.2501H16.5V19.5001C16.4989 19.4054 16.4809 19.3116 16.447 19.2231C17.708 19.1231 18.773 18.7501 19.66 18.1551C20.68 17.4711 21.42 16.5251 21.96 15.4641L24.6 13.9971C24.952 13.8021 25.262 13.6291 25.507 13.4591C25.772 13.2751 26.011 13.0611 26.189 12.7591C26.367 12.4561 26.439 12.1431 26.47 11.8221C26.5 11.5251 26.5 11.1701 26.5 10.7681V10.6231C26.5 10.1351 26.5 9.70715 26.46 9.35415C26.416 8.97315 26.32 8.60415 26.075 8.26615C25.831 7.92715 25.512 7.71915 25.165 7.55615C24.842 7.40615 24.436 7.27115 23.973 7.11715L23.481 6.95315C23.451 6.32715 23.314 5.76715 22.893 5.24815C22.237 4.43915 21.397 4.29815 20.387 4.13015L20.252 4.10715C18.7639 3.86263 17.258 3.74322 15.75 3.75015ZM18.335 23.7501L18.175 22.9511C18.1637 22.8945 18.1331 22.8435 18.0884 22.8069C18.0438 22.7702 17.9878 22.7502 17.93 22.7501H13.57C13.5122 22.7502 13.4562 22.7702 13.4116 22.8069C13.3669 22.8435 13.3363 22.8945 13.325 22.9511L13.165 23.7501H18.335ZM8.038 8.52815L8.052 8.52315C8.124 10.0431 8.295 11.7231 8.723 13.2931L7.657 12.7021C7.268 12.4851 7.024 12.3491 6.848 12.2271C6.686 12.1141 6.633 12.0471 6.604 11.9971C6.574 11.9471 6.542 11.8691 6.522 11.6731C6.50133 11.3609 6.49399 11.048 6.5 10.7351V10.6621C6.5 10.1231 6.501 9.78215 6.53 9.52415C6.558 9.28615 6.602 9.19715 6.642 9.14315C6.681 9.08815 6.751 9.01815 6.968 8.91715C7.204 8.80715 7.528 8.69915 8.038 8.52815ZM23.448 8.52215C23.377 10.0421 23.205 11.7221 22.778 13.2921L23.843 12.7011C24.232 12.4841 24.476 12.3481 24.652 12.2261C24.814 12.1131 24.867 12.0461 24.896 11.9961C24.926 11.9461 24.958 11.8681 24.978 11.6721C24.999 11.4581 25 11.1791 25 10.7341V10.6611C25 10.1221 24.999 9.78115 24.97 9.52315C24.942 9.28515 24.898 9.19615 24.858 9.14215C24.819 9.08715 24.749 9.01715 24.532 8.91615C24.296 8.80615 23.972 8.69715 23.462 8.52615L23.448 8.52215ZM11.498 5.58615C12.9035 5.35607 14.3258 5.24368 15.75 5.25015C17.49 5.25015 18.917 5.40315 20.002 5.58615C21.209 5.79015 21.462 5.86615 21.729 6.19415C21.991 6.51615 22.016 6.82215 21.962 8.17715C21.872 10.4351 21.574 12.8731 20.652 14.7271C20.196 15.6411 19.6 16.3891 18.825 16.9091C18.054 17.4261 17.059 17.7501 15.75 17.7501C14.441 17.7501 13.447 17.4261 12.676 16.9091C11.9 16.3891 11.304 15.6411 10.849 14.7261C9.926 12.8731 9.629 10.4361 9.539 8.17615C9.485 6.82215 9.509 6.51615 9.772 6.19415C10.038 5.86615 10.291 5.79015 11.498 5.58615Z" fill="#14AE5C"/>
</svg>
